# xmcd
#
# Track frame offsets: 
#        150
#        21312
#        40222
#        63926
#        83934
#        98109
#        114934
#        140063
#        154614
#        180234
#        208451
#        228316
#        242725
#        264862
#
# Disc length: 3820 seconds
#
# Revision: 0
# Processed by: cddbd v1.5.2PL0 Copyright (c) Steve Scherf et al.
# Submitted via: ExactAudioCopy v0.95b3
#
DISCID=b60eea0e
DTITLE=Procol Harum  - Live in Copenhagen 2001 (Classic Pictures) - Di
DTITLE=sc 1
DYEAR=1900
DGENRE=
TTITLE0=Bringing Home The Bacon
TTITLE1=Pandora's Box
TTITLE2=Holding On
TTITLE3=Piggy Pig Pig
TTITLE4=Magdalene (My Regal Zonophone)
TTITLE5=Homburg
TTITLE6=Fires (Which Burn Brightly)
TTITLE7=Seem To Have The Blues (Mostly All The Time)
TTITLE8=Memorial Drive
TTITLE9=Grand Hotel
TTITLE10=Wizard Man
TTITLE11=Beyond The Pale
TTITLE12=A Salty Dog
TTITLE13=A Dream In Ev'ry Home
EXTD=
EXTT0=
EXTT1=
EXTT2=
EXTT3=
EXTT4=
EXTT5=
EXTT6=
EXTT7=
EXTT8=
EXTT9=
EXTT10=
EXTT11=
EXTT12=
EXTT13=
PLAYORDER=
